<svg data-v-423bf9ae="" xmlns="http://www.w3.org/2000/svg" viewBox="0 0 323.1428745814732 60" class="font"><!----><!----><!----><g data-v-423bf9ae="" id="401a3b97-67d2-41a6-a191-414169ebb26c" fill="white" transform="matrix(5.714285714285714,0,0,5.714285714285714,-3.8285729459353774,-18.057143109185354)"><path d="M5.89 13.66L5.89 13.66Q4.41 13.66 3.22 13.01L3.22 13.01L3.22 13.01Q2.03 12.36 1.35 11.21L1.35 11.21L1.35 11.21Q0.67 10.07 0.67 8.65L0.67 8.65L0.67 8.65Q0.67 7.24 1.35 6.09L1.35 6.09L1.35 6.09Q2.03 4.94 3.22 4.29L3.22 4.29L3.22 4.29Q4.41 3.64 5.89 3.64L5.89 3.64L5.89 3.64Q7.36 3.64 8.55 4.29L8.55 4.29L8.55 4.29Q9.74 4.94 10.42 6.08L10.42 6.08L10.42 6.08Q11.09 7.22 11.09 8.65L11.09 8.65L11.09 8.65Q11.09 10.08 10.42 11.22L10.42 11.22L10.42 11.22Q9.74 12.36 8.55 13.01L8.55 13.01L8.55 13.01Q7.36 13.66 5.89 13.66L5.89 13.66ZM5.89 12.42L5.89 12.42Q6.97 12.42 7.83 11.93L7.83 11.93L7.83 11.93Q8.69 11.44 9.19 10.58L9.19 10.58L9.19 10.58Q9.69 9.72 9.69 8.65L9.69 8.65L9.69 8.65Q9.69 7.59 9.19 6.73L9.19 6.73L9.19 6.73Q8.69 5.87 7.83 5.38L7.83 5.38L7.83 5.38Q6.97 4.89 5.89 4.89L5.89 4.89L5.89 4.89Q4.82 4.89 3.94 5.38L3.94 5.38L3.94 5.38Q3.07 5.87 2.57 6.73L2.57 6.73L2.57 6.73Q2.07 7.59 2.07 8.65L2.07 8.65L2.07 8.65Q2.07 9.72 2.57 10.58L2.57 10.58L2.57 10.58Q3.07 11.44 3.94 11.93L3.94 11.93L3.94 11.93Q4.82 12.42 5.89 12.42L5.89 12.42ZM16.27 13.64L16.27 13.64Q15.13 13.64 14.24 13.15L14.24 13.15L14.24 13.15Q13.36 12.66 12.85 11.79L12.85 11.79L12.85 11.79Q12.35 10.93 12.35 9.84L12.35 9.84L12.35 9.84Q12.35 8.75 12.85 7.89L12.85 7.89L12.85 7.89Q13.36 7.03 14.24 6.54L14.24 6.54L14.24 6.54Q15.13 6.06 16.27 6.06L16.27 6.06L16.27 6.06Q17.28 6.06 18.07 6.47L18.07 6.47L18.07 6.47Q18.86 6.87 19.29 7.64L19.29 7.64L18.27 8.30L18.27 8.30Q17.92 7.77 17.40 7.50L17.40 7.50L17.40 7.50Q16.88 7.24 16.25 7.24L16.25 7.24L16.25 7.24Q15.53 7.24 14.95 7.56L14.95 7.56L14.95 7.56Q14.36 7.88 14.04 8.48L14.04 8.48L14.04 8.48Q13.71 9.07 13.71 9.84L13.71 9.84L13.71 9.84Q13.71 10.63 14.04 11.22L14.04 11.22L14.04 11.22Q14.36 11.82 14.95 12.14L14.95 12.14L14.95 12.14Q15.53 12.46 16.25 12.46L16.25 12.46L16.25 12.46Q16.88 12.46 17.40 12.19L17.40 12.19L17.40 12.19Q17.92 11.93 18.27 11.40L18.27 11.40L19.29 12.04L19.29 12.04Q18.86 12.81 18.07 13.22L18.07 13.22L18.07 13.22Q17.28 13.64 16.27 13.64L16.27 13.64ZM24.26 13.64L24.26 13.64Q23.13 13.64 22.24 13.15L22.24 13.15L22.24 13.15Q21.35 12.66 20.85 11.79L20.85 11.79L20.85 11.79Q20.34 10.93 20.34 9.84L20.34 9.84L20.34 9.84Q20.34 8.75 20.85 7.89L20.85 7.89L20.85 7.89Q21.35 7.03 22.24 6.54L22.24 6.54L22.24 6.54Q23.13 6.06 24.26 6.06L24.26 6.06L24.26 6.06Q25.27 6.06 26.06 6.47L26.06 6.47L26.06 6.47Q26.85 6.87 27.29 7.64L27.29 7.64L26.26 8.30L26.26 8.30Q25.91 7.77 25.40 7.50L25.40 7.50L25.40 7.50Q24.88 7.24 24.25 7.24L24.25 7.24L24.25 7.24Q23.52 7.24 22.94 7.56L22.94 7.56L22.94 7.56Q22.36 7.88 22.03 8.48L22.03 8.48L22.03 8.48Q21.70 9.07 21.70 9.84L21.70 9.84L21.70 9.84Q21.70 10.63 22.03 11.22L22.03 11.22L22.03 11.22Q22.36 11.82 22.94 12.14L22.94 12.14L22.94 12.14Q23.52 12.46 24.25 12.46L24.25 12.46L24.25 12.46Q24.88 12.46 25.40 12.19L25.40 12.19L25.40 12.19Q25.91 11.93 26.26 11.40L26.26 11.40L27.29 12.04L27.29 12.04Q26.85 12.81 26.06 13.22L26.06 13.22L26.06 13.22Q25.27 13.64 24.26 13.64L24.26 13.64ZM34.59 6.13L35.94 6.13L35.94 13.55L34.66 13.55L34.66 12.43L34.66 12.43Q34.26 13.01 33.59 13.32L33.59 13.32L33.59 13.32Q32.93 13.64 32.14 13.64L32.14 13.64L32.14 13.64Q30.66 13.64 29.81 12.82L29.81 12.82L29.81 12.82Q28.95 12.00 28.95 10.40L28.95 10.40L28.95 6.13L30.30 6.13L30.30 10.25L30.30 10.25Q30.30 11.33 30.81 11.88L30.81 11.88L30.81 11.88Q31.33 12.43 32.30 12.43L32.30 12.43L32.30 12.43Q33.36 12.43 33.98 11.79L33.98 11.79L33.98 11.79Q34.59 11.14 34.59 9.97L34.59 9.97L34.59 6.13ZM38.50 13.55L38.50 3.16L39.84 3.16L39.84 13.55L38.50 13.55ZM47.98 6.13L49.32 6.13L49.32 13.55L48.05 13.55L48.05 12.43L48.05 12.43Q47.64 13.01 46.98 13.32L46.98 13.32L46.98 13.32Q46.31 13.64 45.53 13.64L45.53 13.64L45.53 13.64Q44.04 13.64 43.19 12.82L43.19 12.82L43.19 12.82Q42.34 12.00 42.34 10.40L42.34 10.40L42.34 6.13L43.68 6.13L43.68 10.25L43.68 10.25Q43.68 11.33 44.20 11.88L44.20 11.88L44.20 11.88Q44.72 12.43 45.68 12.43L45.68 12.43L45.68 12.43Q46.75 12.43 47.36 11.79L47.36 11.79L47.36 11.79Q47.98 11.14 47.98 9.97L47.98 9.97L47.98 6.13ZM54.01 13.64L54.01 13.64Q53.10 13.64 52.26 13.39L52.26 13.39L52.26 13.39Q51.42 13.15 50.95 12.77L50.95 12.77L51.51 11.70L51.51 11.70Q52.00 12.05 52.70 12.26L52.70 12.26L52.70 12.26Q53.40 12.47 54.11 12.47L54.11 12.47L54.11 12.47Q55.87 12.47 55.87 11.47L55.87 11.47L55.87 11.47Q55.87 11.13 55.64 10.93L55.64 10.93L55.64 10.93Q55.40 10.74 55.04 10.65L55.04 10.65L55.04 10.65Q54.68 10.56 54.03 10.44L54.03 10.44L54.03 10.44Q53.13 10.30 52.56 10.12L52.56 10.12L52.56 10.12Q52.00 9.94 51.59 9.51L51.59 9.51L51.59 9.51Q51.18 9.07 51.18 8.29L51.18 8.29L51.18 8.29Q51.18 7.28 52.02 6.67L52.02 6.67L52.02 6.67Q52.86 6.06 54.28 6.06L54.28 6.06L54.28 6.06Q55.02 6.06 55.76 6.24L55.76 6.24L55.76 6.24Q56.50 6.43 56.98 6.73L56.98 6.73L56.41 7.80L56.41 7.80Q55.50 7.21 54.26 7.21L54.26 7.21L54.26 7.21Q53.41 7.21 52.96 7.49L52.96 7.49L52.96 7.49Q52.51 7.77 52.51 8.23L52.51 8.23L52.51 8.23Q52.51 8.60 52.77 8.81L52.77 8.81L52.77 8.81Q53.02 9.02 53.39 9.11L53.39 9.11L53.39 9.11Q53.76 9.21 54.43 9.34L54.43 9.34L54.43 9.34Q55.33 9.49 55.88 9.67L55.88 9.67L55.88 9.67Q56.43 9.84 56.83 10.26L56.83 10.26L56.83 10.26Q57.22 10.68 57.22 11.44L57.22 11.44L57.22 11.44Q57.22 12.45 56.36 13.04L56.36 13.04L56.36 13.04Q55.50 13.64 54.01 13.64L54.01 13.64Z"></path></g><!----><!----></svg>