<svg data-v-423bf9ae="" xmlns="http://www.w3.org/2000/svg" viewBox="0 0 2351 1406" class="iconLeftSlogan"><!----><!----><!----><g data-v-423bf9ae="" id="538d8ace-2fa4-4970-89bd-f71f343b85db" fill="white" transform="matrix(5.714285714285714,0,0,5.714285714285714,2023.3360083528928,-18.057143109185354)"><path d="M5.89 13.66L5.89 13.66Q4.41 13.66 3.22 13.01L3.22 13.01L3.22 13.01Q2.03 12.36 1.35 11.21L1.35 11.21L1.35 11.21Q0.67 10.07 0.67 8.65L0.67 8.65L0.67 8.65Q0.67 7.24 1.35 6.09L1.35 6.09L1.35 6.09Q2.03 4.94 3.22 4.29L3.22 4.29L3.22 4.29Q4.41 3.64 5.89 3.64L5.89 3.64L5.89 3.64Q7.36 3.64 8.55 4.29L8.55 4.29L8.55 4.29Q9.74 4.94 10.42 6.08L10.42 6.08L10.42 6.08Q11.09 7.22 11.09 8.65L11.09 8.65L11.09 8.65Q11.09 10.08 10.42 11.22L10.42 11.22L10.42 11.22Q9.74 12.36 8.55 13.01L8.55 13.01L8.55 13.01Q7.36 13.66 5.89 13.66L5.89 13.66ZM5.89 12.42L5.89 12.42Q6.97 12.42 7.83 11.93L7.83 11.93L7.83 11.93Q8.69 11.44 9.19 10.58L9.19 10.58L9.19 10.58Q9.69 9.72 9.69 8.65L9.69 8.65L9.69 8.65Q9.69 7.59 9.19 6.73L9.19 6.73L9.19 6.73Q8.69 5.87 7.83 5.38L7.83 5.38L7.83 5.38Q6.97 4.89 5.89 4.89L5.89 4.89L5.89 4.89Q4.82 4.89 3.94 5.38L3.94 5.38L3.94 5.38Q3.07 5.87 2.57 6.73L2.57 6.73L2.57 6.73Q2.07 7.59 2.07 8.65L2.07 8.65L2.07 8.65Q2.07 9.72 2.57 10.58L2.57 10.58L2.57 10.58Q3.07 11.44 3.94 11.93L3.94 11.93L3.94 11.93Q4.82 12.42 5.89 12.42L5.89 12.42ZM16.27 13.64L16.27 13.64Q15.13 13.64 14.24 13.15L14.24 13.15L14.24 13.15Q13.36 12.66 12.85 11.79L12.85 11.79L12.85 11.79Q12.35 10.93 12.35 9.84L12.35 9.84L12.35 9.84Q12.35 8.75 12.85 7.89L12.85 7.89L12.85 7.89Q13.36 7.03 14.24 6.54L14.24 6.54L14.24 6.54Q15.13 6.06 16.27 6.06L16.27 6.06L16.27 6.06Q17.28 6.06 18.07 6.47L18.07 6.47L18.07 6.47Q18.86 6.87 19.29 7.64L19.29 7.64L18.27 8.30L18.27 8.30Q17.92 7.77 17.40 7.50L17.40 7.50L17.40 7.50Q16.88 7.24 16.25 7.24L16.25 7.24L16.25 7.24Q15.53 7.24 14.95 7.56L14.95 7.56L14.95 7.56Q14.36 7.88 14.04 8.48L14.04 8.48L14.04 8.48Q13.71 9.07 13.71 9.84L13.71 9.84L13.71 9.84Q13.71 10.63 14.04 11.22L14.04 11.22L14.04 11.22Q14.36 11.82 14.95 12.14L14.95 12.14L14.95 12.14Q15.53 12.46 16.25 12.46L16.25 12.46L16.25 12.46Q16.88 12.46 17.40 12.19L17.40 12.19L17.40 12.19Q17.92 11.93 18.27 11.40L18.27 11.40L19.29 12.04L19.29 12.04Q18.86 12.81 18.07 13.22L18.07 13.22L18.07 13.22Q17.28 13.64 16.27 13.64L16.27 13.64ZM24.26 13.64L24.26 13.64Q23.13 13.64 22.24 13.15L22.24 13.15L22.24 13.15Q21.35 12.66 20.85 11.79L20.85 11.79L20.85 11.79Q20.34 10.93 20.34 9.84L20.34 9.84L20.34 9.84Q20.34 8.75 20.85 7.89L20.85 7.89L20.85 7.89Q21.35 7.03 22.24 6.54L22.24 6.54L22.24 6.54Q23.13 6.06 24.26 6.06L24.26 6.06L24.26 6.06Q25.27 6.06 26.06 6.47L26.06 6.47L26.06 6.47Q26.85 6.87 27.29 7.64L27.29 7.64L26.26 8.30L26.26 8.30Q25.91 7.77 25.40 7.50L25.40 7.50L25.40 7.50Q24.88 7.24 24.25 7.24L24.25 7.24L24.25 7.24Q23.52 7.24 22.94 7.56L22.94 7.56L22.94 7.56Q22.36 7.88 22.03 8.48L22.03 8.48L22.03 8.48Q21.70 9.07 21.70 9.84L21.70 9.84L21.70 9.84Q21.70 10.63 22.03 11.22L22.03 11.22L22.03 11.22Q22.36 11.82 22.94 12.14L22.94 12.14L22.94 12.14Q23.52 12.46 24.25 12.46L24.25 12.46L24.25 12.46Q24.88 12.46 25.40 12.19L25.40 12.19L25.40 12.19Q25.91 11.93 26.26 11.40L26.26 11.40L27.29 12.04L27.29 12.04Q26.85 12.81 26.06 13.22L26.06 13.22L26.06 13.22Q25.27 13.64 24.26 13.64L24.26 13.64ZM34.59 6.13L35.94 6.13L35.94 13.55L34.66 13.55L34.66 12.43L34.66 12.43Q34.26 13.01 33.59 13.32L33.59 13.32L33.59 13.32Q32.93 13.64 32.14 13.64L32.14 13.64L32.14 13.64Q30.66 13.64 29.81 12.82L29.81 12.82L29.81 12.82Q28.95 12.00 28.95 10.40L28.95 10.40L28.95 6.13L30.30 6.13L30.30 10.25L30.30 10.25Q30.30 11.33 30.81 11.88L30.81 11.88L30.81 11.88Q31.33 12.43 32.30 12.43L32.30 12.43L32.30 12.43Q33.36 12.43 33.98 11.79L33.98 11.79L33.98 11.79Q34.59 11.14 34.59 9.97L34.59 9.97L34.59 6.13ZM38.50 13.55L38.50 3.16L39.84 3.16L39.84 13.55L38.50 13.55ZM47.98 6.13L49.32 6.13L49.32 13.55L48.05 13.55L48.05 12.43L48.05 12.43Q47.64 13.01 46.98 13.32L46.98 13.32L46.98 13.32Q46.31 13.64 45.53 13.64L45.53 13.64L45.53 13.64Q44.04 13.64 43.19 12.82L43.19 12.82L43.19 12.82Q42.34 12.00 42.34 10.40L42.34 10.40L42.34 6.13L43.68 6.13L43.68 10.25L43.68 10.25Q43.68 11.33 44.20 11.88L44.20 11.88L44.20 11.88Q44.72 12.43 45.68 12.43L45.68 12.43L45.68 12.43Q46.75 12.43 47.36 11.79L47.36 11.79L47.36 11.79Q47.98 11.14 47.98 9.97L47.98 9.97L47.98 6.13ZM54.01 13.64L54.01 13.64Q53.10 13.64 52.26 13.39L52.26 13.39L52.26 13.39Q51.42 13.15 50.95 12.77L50.95 12.77L51.51 11.70L51.51 11.70Q52.00 12.05 52.70 12.26L52.70 12.26L52.70 12.26Q53.40 12.47 54.11 12.47L54.11 12.47L54.11 12.47Q55.87 12.47 55.87 11.47L55.87 11.47L55.87 11.47Q55.87 11.13 55.64 10.93L55.64 10.93L55.64 10.93Q55.40 10.74 55.04 10.65L55.04 10.65L55.04 10.65Q54.68 10.56 54.03 10.44L54.03 10.44L54.03 10.44Q53.13 10.30 52.56 10.12L52.56 10.12L52.56 10.12Q52.00 9.94 51.59 9.51L51.59 9.51L51.59 9.51Q51.18 9.07 51.18 8.29L51.18 8.29L51.18 8.29Q51.18 7.28 52.02 6.67L52.02 6.67L52.02 6.67Q52.86 6.06 54.28 6.06L54.28 6.06L54.28 6.06Q55.02 6.06 55.76 6.24L55.76 6.24L55.76 6.24Q56.50 6.43 56.98 6.73L56.98 6.73L56.41 7.80L56.41 7.80Q55.50 7.21 54.26 7.21L54.26 7.21L54.26 7.21Q53.41 7.21 52.96 7.49L52.96 7.49L52.96 7.49Q52.51 7.77 52.51 8.23L52.51 8.23L52.51 8.23Q52.51 8.60 52.77 8.81L52.77 8.81L52.77 8.81Q53.02 9.02 53.39 9.11L53.39 9.11L53.39 9.11Q53.76 9.21 54.43 9.34L54.43 9.34L54.43 9.34Q55.33 9.49 55.88 9.67L55.88 9.67L55.88 9.67Q56.43 9.84 56.83 10.26L56.83 10.26L56.83 10.26Q57.22 10.68 57.22 11.44L57.22 11.44L57.22 11.44Q57.22 12.45 56.36 13.04L56.36 13.04L56.36 13.04Q55.50 13.64 54.01 13.64L54.01 13.64Z"></path></g><!----><g data-v-423bf9ae="" id="bb8a8160-04bd-4e54-a4b4-0548896c4b83" transform="matrix(3.9511111789279516,0,0,3.9511111789279516,-7.484461805555611,-308.28442708333284)" stroke="none" fill="white"><path d="M484.6 230.6h-76.2c-14 0-25.4 11.4-25.4 25.4 0 70-57 127-127 127-33.9 0-65.8-13.2-89.8-37.2-9.9-9.9-26-9.9-35.9 0-9.9 9.9-9.9 26 0 35.9 33.6 33.6 78.2 52.1 125.7 52.1 89.4 0 163.6-66.4 176-152.4h52.6c14 0 25.4-11.4 25.4-25.4 0-14-11.4-25.4-25.4-25.4zM256 129c33.9 0 65.8 13.2 89.8 37.2 9.9 9.9 26 9.9 35.9 0 9.9-9.9 9.9-26 0-35.9-33.6-33.6-78.2-52.1-125.7-52.1-89.4 0-163.6 66.4-176 152.4H27.4C13.4 230.6 2 242 2 256c0 14 11.4 25.4 25.4 25.4h76.2c14 0 25.4-11.4 25.4-25.4 0-70 57-127 127-127z"></path><circle cx="256" cy="256" r="76.2"></circle></g><!----><g data-v-423bf9ae="" id="ab208130-bb42-458c-bd08-3241119a85cb" fill="white" transform="matrix(0.5081162514446812,0,0,0.5081162514446812,2027.0019222896128,58.607760656188596)"><path d="M0.71 3.64L0.32 3.64L0.33 3.08L3.55 3.08L3.55 3.08Q4.69 3.08 5.29 3.21L5.29 3.21L5.29 3.21Q5.93 3.37 6.40 3.75L6.40 3.75L6.40 3.75Q7.40 4.57 7.40 5.71L7.40 5.71L7.40 5.71Q7.40 6.43 6.93 7.04L6.93 7.04L6.93 7.04Q6.44 7.66 5.41 7.92L5.41 7.92L8.09 11.49L8.09 11.49Q8.40 11.87 8.70 11.87L8.70 11.87L9.30 11.87L9.32 12.41L7.29 12.41L4.30 8.10L4.13 8.10L4.13 8.10Q4.09 8.10 4.03 8.11L4.03 8.11L4.03 8.11Q3.98 8.11 3.96 8.11L3.96 8.11L3.96 8.11Q3.08 8.11 2.69 8.03L2.69 8.03L2.69 11.46L2.69 11.46Q2.69 11.76 2.83 11.81L2.83 11.81L2.83 11.81Q2.95 11.87 3.66 11.87L3.66 11.87L4.37 11.87L4.34 12.41L0.62 12.41L0.62 11.87L0.94 11.87L0.94 11.87Q1.40 11.87 1.47 11.81L1.47 11.81L1.47 11.81Q1.55 11.74 1.55 11.46L1.55 11.46L1.55 4.14L1.55 4.14Q1.55 3.82 1.36 3.73L1.36 3.73L1.36 3.73Q1.13 3.64 0.71 3.64L0.71 3.64ZM2.69 4.28L2.69 7.57L2.69 7.57Q2.87 7.70 3.58 7.71L3.58 7.71L3.58 7.71Q4.85 7.71 5.43 7.27L5.43 7.27L5.43 7.27Q6.02 6.84 6.02 5.92L6.02 5.92L6.02 5.92Q6.02 4.92 5.25 4.27L5.25 4.27L5.25 4.27Q4.49 3.64 3.11 3.64L3.11 3.64L3.11 3.64Q2.86 3.64 2.78 3.75L2.78 3.75L2.78 3.75Q2.69 3.84 2.69 4.28L2.69 4.28ZM17.09 3.64L17.08 3.08L24.29 3.08L24.29 3.08Q24.30 4.14 24.36 5.28L24.36 5.28L23.81 5.30L23.81 5.30Q23.80 4.66 23.74 4.25L23.74 4.25L23.74 4.25Q23.70 3.89 23.65 3.80L23.65 3.80L23.65 3.80Q23.59 3.71 23.47 3.69L23.47 3.69L23.47 3.69Q23.38 3.68 22.79 3.68L22.79 3.68L20.41 3.68L20.41 3.68Q19.87 3.68 19.72 3.77L19.72 3.77L19.72 3.77Q19.60 3.86 19.60 4.33L19.60 4.33L19.60 6.28L19.60 6.28Q19.60 6.69 19.65 6.76L19.65 6.76L19.65 6.76Q19.72 6.84 20.06 6.84L20.06 6.84L22.18 6.84L22.18 6.84Q22.54 6.84 22.62 6.73L22.62 6.73L22.62 6.73Q22.70 6.63 22.71 6.14L22.71 6.14L22.71 5.61L23.22 5.63L23.22 8.97L22.71 8.97L22.71 8.24L22.71 8.24Q22.71 7.66 22.63 7.57L22.63 7.57L22.63 7.57Q22.55 7.46 22.20 7.46L22.20 7.46L20.10 7.46L20.10 7.46Q19.77 7.46 19.68 7.54L19.68 7.54L19.68 7.54Q19.60 7.63 19.60 7.89L19.60 7.89L19.60 11.20L19.60 11.20Q19.60 11.57 19.68 11.67L19.68 11.67L19.68 11.67Q19.77 11.77 20.04 11.77L20.04 11.77L20.04 11.77Q22.96 11.75 23.49 11.69L23.49 11.69L23.49 11.69Q24.01 11.63 24.09 11.38L24.09 11.38L24.10 11.36L24.10 11.35L24.33 10.17L24.81 10.25L24.46 12.41L17.36 12.41L17.36 11.87L17.73 11.87L17.73 11.87Q18.29 11.87 18.37 11.80L18.37 11.80L18.37 11.80Q18.46 11.72 18.46 11.33L18.46 11.33L18.46 4.24L18.46 4.24Q18.46 3.82 18.31 3.73L18.31 3.73L18.31 3.73Q18.14 3.64 17.49 3.64L17.49 3.64L17.09 3.64ZM32.70 12.41L32.68 11.87L32.85 11.87L32.85 11.87Q33.24 11.87 33.37 11.73L33.37 11.73L33.37 11.73Q33.50 11.57 33.83 10.83L33.83 10.83L34.74 8.82L35.31 7.53L35.31 7.53Q35.58 6.97 35.62 6.86L35.62 6.86L35.62 6.86Q35.69 6.70 35.74 6.60L35.74 6.60L35.74 6.60Q35.79 6.51 35.81 6.45L35.81 6.45L35.90 6.21L37.33 2.74L37.63 2.74L37.63 2.74Q38.48 4.98 40.67 10.25L40.67 10.25L40.67 10.25Q41.12 11.34 41.31 11.64L41.31 11.64L41.31 11.64Q41.45 11.87 41.88 11.87L41.88 11.87L42.10 11.87L42.08 12.41L38.89 12.41L38.90 11.87L39.32 11.87L39.32 11.87Q39.94 11.87 39.94 11.70L39.94 11.70L39.94 11.70Q39.94 11.63 39.80 11.27L39.80 11.27L38.76 8.72L35.51 8.72L34.41 11.18L34.41 11.18Q34.27 11.50 34.27 11.63L34.27 11.63L34.27 11.63Q34.27 11.79 34.36 11.83L34.36 11.83L34.36 11.83Q34.46 11.87 34.84 11.87L34.84 11.87L35.42 11.87L35.42 12.41L32.70 12.41ZM37.19 4.79L35.78 8.10L38.52 8.10L37.19 4.79ZM50.32 3.64L49.83 3.64L49.84 3.08L53.43 3.08L53.43 3.64L52.79 3.64L52.79 3.64Q52.42 3.64 52.31 3.72L52.31 3.72L52.31 3.72Q52.19 3.80 52.19 4.16L52.19 4.16L52.19 11.22L52.19 11.22Q52.19 11.57 52.28 11.67L52.28 11.67L52.28 11.67Q52.36 11.77 52.66 11.77L52.66 11.77L52.66 11.77Q55.53 11.74 56.18 11.63L56.18 11.63L56.18 11.63Q56.40 11.61 56.48 11.39L56.48 11.39L56.48 11.39Q56.56 11.17 56.76 10.05L56.76 10.05L57.25 10.08L56.79 12.41L50.03 12.41L50.01 11.87L50.40 11.87L50.40 11.87Q50.91 11.87 50.98 11.80L50.98 11.80L50.98 11.80Q51.06 11.72 51.06 11.33L51.06 11.33L51.06 4.09L51.06 4.09Q51.06 3.80 50.91 3.72L50.91 3.72L50.91 3.72Q50.76 3.64 50.32 3.64L50.32 3.64ZM65.26 5.35L64.76 5.33L64.76 5.33Q64.89 4.17 64.97 3.08L64.97 3.08L73.05 3.08L73.05 3.08Q72.97 4.13 72.94 4.53L72.94 4.53L72.94 4.53Q72.90 5.26 72.88 5.32L72.88 5.32L72.38 5.30L72.38 5.30Q72.46 4.34 72.46 4.16L72.46 4.16L72.46 4.16Q72.46 3.88 72.32 3.79L72.32 3.79L72.32 3.79Q72.15 3.69 71.74 3.69L71.74 3.69L70.14 3.69L70.14 3.69Q69.63 3.69 69.51 3.79L69.51 3.79L69.51 3.79Q69.41 3.87 69.41 4.36L69.41 4.36L69.41 11.22L69.41 11.22Q69.41 11.66 69.55 11.76L69.55 11.76L69.55 11.76Q69.71 11.87 70.22 11.87L70.22 11.87L70.78 11.87L70.79 12.41L67.10 12.40L67.10 11.87L67.32 11.87L67.32 11.87Q67.99 11.87 68.13 11.79L68.13 11.79L68.13 11.79Q68.28 11.70 68.28 11.28L68.28 11.28L68.28 4.48L68.28 4.48Q68.28 3.92 68.18 3.80L68.18 3.80L68.18 3.80Q68.08 3.69 67.66 3.69L67.66 3.69L66.19 3.69L66.19 3.69Q66.00 3.69 65.93 3.71L65.93 3.71L65.93 3.71Q65.86 3.72 65.75 3.72L65.75 3.72L65.75 3.72Q65.73 3.72 65.61 3.79L65.61 3.79L65.61 3.79Q65.53 3.84 65.50 3.86L65.50 3.86L65.50 3.86Q65.47 3.88 65.43 3.99L65.43 3.99L65.43 3.99Q65.41 4.05 65.38 4.14L65.38 4.14L65.38 4.14Q65.35 4.21 65.33 4.36L65.33 4.36L65.33 4.36Q65.30 4.59 65.30 4.61L65.30 4.61L65.30 4.61Q65.30 4.80 65.29 4.95L65.29 4.95L65.29 4.95Q65.29 5.02 65.28 5.15L65.28 5.15L65.28 5.15Q65.28 5.29 65.26 5.35L65.26 5.35ZM81.38 3.64L80.79 3.64L80.80 3.08L84.31 3.08L84.31 3.64L84.08 3.64L84.08 3.64Q83.54 3.64 83.36 3.73L83.36 3.73L83.36 3.73Q83.23 3.81 83.23 4.28L83.23 4.28L83.23 11.22L83.23 11.22Q83.23 11.68 83.34 11.77L83.34 11.77L83.34 11.77Q83.45 11.87 83.98 11.87L83.98 11.87L84.53 11.87L84.54 12.41L80.96 12.41L80.94 11.87L81.31 11.87L81.31 11.87Q81.87 11.87 81.98 11.77L81.98 11.77L81.98 11.77Q82.09 11.67 82.09 11.25L82.09 11.25L82.09 4.14L82.09 4.14Q82.09 3.77 81.99 3.71L81.99 3.71L81.99 3.71Q81.88 3.64 81.38 3.64L81.38 3.64ZM95.44 12.41L92.42 12.41L92.42 11.87L92.56 11.87L92.56 11.87Q93.15 11.87 93.26 11.77L93.26 11.77L93.26 11.77Q93.39 11.68 93.40 11.21L93.40 11.21L93.53 4.38L93.53 4.38Q93.53 4.35 93.54 4.28L93.54 4.28L93.54 4.28Q93.54 4.21 93.54 4.17L93.54 4.17L93.54 4.01L93.54 4.01Q93.54 3.76 93.47 3.71L93.47 3.71L93.47 3.71Q93.37 3.64 93.15 3.64L93.15 3.64L92.44 3.64L92.42 3.08L94.53 3.08L97.73 10.55L100.86 3.08L103.10 3.08L103.10 3.64L102.63 3.64L102.63 3.64Q102.18 3.64 102.05 3.71L102.05 3.71L102.05 3.71Q101.90 3.79 101.90 4.08L101.90 4.08L101.90 11.22L101.90 11.22Q101.90 11.68 102.01 11.77L102.01 11.77L102.01 11.77Q102.12 11.87 102.75 11.87L102.75 11.87L103.03 11.87L103.04 12.41L99.65 12.41L99.63 11.87L99.91 11.87L99.91 11.87Q100.52 11.87 100.64 11.77L100.64 11.77L100.64 11.77Q100.76 11.66 100.76 11.25L100.76 11.25L100.76 4.83L98.61 9.91L97.75 12.02L97.75 12.02Q97.62 12.37 97.57 12.44L97.57 12.44L97.57 12.44Q97.53 12.51 97.46 12.51L97.46 12.51L97.46 12.51Q97.36 12.51 96.91 11.52L96.91 11.52L94.10 5.01L94.04 11.39L94.04 11.39Q94.04 11.74 94.24 11.80L94.24 11.80L94.24 11.80Q94.48 11.87 95.44 11.87L95.44 11.87L95.44 12.41ZM110.78 3.64L110.77 3.08L117.98 3.08L117.98 3.08Q118.00 4.14 118.05 5.28L118.05 5.28L117.50 5.30L117.50 5.30Q117.49 4.66 117.43 4.25L117.43 4.25L117.43 4.25Q117.39 3.89 117.34 3.80L117.34 3.80L117.34 3.80Q117.28 3.71 117.17 3.69L117.17 3.69L117.17 3.69Q117.07 3.68 116.48 3.68L116.48 3.68L114.11 3.68L114.11 3.68Q113.56 3.68 113.42 3.77L113.42 3.77L113.42 3.77Q113.29 3.86 113.29 4.33L113.29 4.33L113.29 6.28L113.29 6.28Q113.29 6.69 113.35 6.76L113.35 6.76L113.35 6.76Q113.42 6.84 113.76 6.84L113.76 6.84L115.87 6.84L115.87 6.84Q116.23 6.84 116.31 6.73L116.31 6.73L116.31 6.73Q116.40 6.63 116.40 6.14L116.40 6.14L116.40 5.61L116.92 5.63L116.92 8.97L116.40 8.97L116.40 8.24L116.40 8.24Q116.40 7.66 116.33 7.57L116.33 7.57L116.33 7.57Q116.25 7.46 115.90 7.46L115.90 7.46L113.80 7.46L113.80 7.46Q113.46 7.46 113.38 7.54L113.38 7.54L113.38 7.54Q113.29 7.63 113.29 7.89L113.29 7.89L113.29 11.20L113.29 11.20Q113.29 11.57 113.38 11.67L113.38 11.67L113.38 11.67Q113.46 11.77 113.74 11.77L113.74 11.77L113.74 11.77Q116.66 11.75 117.18 11.69L117.18 11.69L117.18 11.69Q117.70 11.63 117.78 11.38L117.78 11.38L117.79 11.36L117.80 11.35L118.02 10.17L118.50 10.25L118.15 12.41L111.05 12.41L111.05 11.87L111.42 11.87L111.42 11.87Q111.98 11.87 112.06 11.80L112.06 11.80L112.06 11.80Q112.16 11.72 112.16 11.33L112.16 11.33L112.16 4.24L112.16 4.24Q112.16 3.82 112.01 3.73L112.01 3.73L112.01 3.73Q111.84 3.64 111.18 3.64L111.18 3.64L110.78 3.64ZM136.23 5.35L135.73 5.33L135.73 5.33Q135.85 4.17 135.93 3.08L135.93 3.08L144.01 3.08L144.01 3.08Q143.93 4.13 143.90 4.53L143.90 4.53L143.90 4.53Q143.86 5.26 143.84 5.32L143.84 5.32L143.34 5.30L143.34 5.30Q143.42 4.34 143.42 4.16L143.42 4.16L143.42 4.16Q143.42 3.88 143.28 3.79L143.28 3.79L143.28 3.79Q143.11 3.69 142.71 3.69L142.71 3.69L141.10 3.69L141.10 3.69Q140.59 3.69 140.47 3.79L140.47 3.79L140.47 3.79Q140.38 3.87 140.37 4.36L140.37 4.36L140.37 11.22L140.37 11.22Q140.37 11.66 140.51 11.76L140.51 11.76L140.51 11.76Q140.67 11.87 141.18 11.87L141.18 11.87L141.74 11.87L141.76 12.41L138.07 12.40L138.07 11.87L138.28 11.87L138.28 11.87Q138.95 11.87 139.10 11.79L139.10 11.79L139.10 11.79Q139.24 11.70 139.24 11.28L139.24 11.28L139.24 4.48L139.24 4.48Q139.24 3.92 139.14 3.80L139.14 3.80L139.14 3.80Q139.04 3.69 138.62 3.69L138.62 3.69L137.15 3.69L137.15 3.69Q136.96 3.69 136.90 3.71L136.90 3.71L136.90 3.71Q136.83 3.72 136.72 3.72L136.72 3.72L136.72 3.72Q136.69 3.72 136.58 3.79L136.58 3.79L136.58 3.79Q136.49 3.84 136.47 3.86L136.47 3.86L136.47 3.86Q136.44 3.88 136.40 3.99L136.40 3.99L136.40 3.99Q136.37 4.05 136.34 4.14L136.34 4.14L136.34 4.14Q136.32 4.21 136.29 4.36L136.29 4.36L136.29 4.36Q136.27 4.59 136.27 4.61L136.27 4.61L136.27 4.61Q136.27 4.80 136.25 4.95L136.25 4.95L136.25 4.95Q136.25 5.02 136.25 5.15L136.25 5.15L136.25 5.15Q136.24 5.29 136.23 5.35L136.23 5.35ZM152.09 3.64L151.70 3.64L151.71 3.08L154.93 3.08L154.93 3.08Q156.06 3.08 156.67 3.21L156.67 3.21L156.67 3.21Q157.31 3.37 157.77 3.75L157.77 3.75L157.77 3.75Q158.78 4.57 158.78 5.71L158.78 5.71L158.78 5.71Q158.78 6.43 158.31 7.04L158.31 7.04L158.31 7.04Q157.81 7.66 156.78 7.92L156.78 7.92L159.47 11.49L159.47 11.49Q159.78 11.87 160.07 11.87L160.07 11.87L160.67 11.87L160.70 12.41L158.67 12.41L155.67 8.10L155.50 8.10L155.50 8.10Q155.46 8.10 155.41 8.11L155.41 8.11L155.41 8.11Q155.35 8.11 155.34 8.11L155.34 8.11L155.34 8.11Q154.46 8.11 154.06 8.03L154.06 8.03L154.06 11.46L154.06 11.46Q154.06 11.76 154.21 11.81L154.21 11.81L154.21 11.81Q154.33 11.87 155.03 11.87L155.03 11.87L155.74 11.87L155.72 12.41L151.99 12.41L151.99 11.87L152.31 11.87L152.31 11.87Q152.78 11.87 152.84 11.81L152.84 11.81L152.84 11.81Q152.93 11.74 152.93 11.46L152.93 11.46L152.93 4.14L152.93 4.14Q152.93 3.82 152.74 3.73L152.74 3.73L152.74 3.73Q152.51 3.64 152.09 3.64L152.09 3.64ZM154.06 4.28L154.06 7.57L154.06 7.57Q154.25 7.70 154.96 7.71L154.96 7.71L154.96 7.71Q156.23 7.71 156.81 7.27L156.81 7.27L156.81 7.27Q157.40 6.84 157.40 5.92L157.40 5.92L157.40 5.92Q157.40 4.92 156.63 4.27L156.63 4.27L156.63 4.27Q155.87 3.64 154.49 3.64L154.49 3.64L154.49 3.64Q154.23 3.64 154.15 3.75L154.15 3.75L154.15 3.75Q154.07 3.84 154.06 4.28L154.06 4.28ZM168.46 12.41L168.45 11.87L168.62 11.87L168.62 11.87Q169.01 11.87 169.14 11.73L169.14 11.73L169.14 11.73Q169.26 11.57 169.60 10.83L169.60 10.83L170.51 8.82L171.08 7.53L171.08 7.53Q171.35 6.97 171.39 6.86L171.39 6.86L171.39 6.86Q171.46 6.70 171.51 6.60L171.51 6.60L171.51 6.60Q171.56 6.51 171.58 6.45L171.58 6.45L171.67 6.21L173.10 2.74L173.39 2.74L173.39 2.74Q174.25 4.98 176.44 10.25L176.44 10.25L176.44 10.25Q176.89 11.34 177.08 11.64L177.08 11.64L177.08 11.64Q177.21 11.87 177.65 11.87L177.65 11.87L177.86 11.87L177.85 12.41L174.66 12.41L174.67 11.87L175.09 11.87L175.09 11.87Q175.70 11.87 175.70 11.70L175.70 11.70L175.70 11.70Q175.70 11.63 175.57 11.27L175.57 11.27L174.53 8.72L171.28 8.72L170.17 11.18L170.17 11.18Q170.04 11.50 170.04 11.63L170.04 11.63L170.04 11.63Q170.04 11.79 170.13 11.83L170.13 11.83L170.13 11.83Q170.23 11.87 170.61 11.87L170.61 11.87L171.19 11.87L171.19 12.41L168.46 12.41ZM172.96 4.79L171.55 8.10L174.29 8.10L172.96 4.79ZM185.61 3.64L185.60 3.08L187.77 3.08L193.50 10.48L193.50 4.14L193.50 4.14Q193.50 3.81 193.35 3.72L193.35 3.72L193.35 3.72Q193.20 3.64 192.74 3.64L192.74 3.64L192.25 3.64L192.27 3.08L195.25 3.08L195.25 3.64L194.93 3.64L194.93 3.64Q194.47 3.64 194.32 3.75L194.32 3.75L194.32 3.75Q194.17 3.86 194.17 4.25L194.17 4.25L194.17 12.32L194.17 12.47L194.17 12.47Q194.17 12.52 194.15 12.57L194.15 12.57L194.15 12.57Q194.14 12.61 194.11 12.64L194.11 12.64L194.11 12.64Q194.09 12.65 194.04 12.65L194.04 12.65L193.85 12.65L193.79 12.65L193.76 12.65L193.73 12.64L193.73 12.64Q193.70 12.64 193.69 12.63L193.69 12.63L193.69 12.63Q193.68 12.61 193.68 12.60L193.68 12.60L193.68 12.60Q193.68 12.58 193.66 12.57L193.66 12.57L193.66 12.57Q193.63 12.54 193.61 12.50L193.61 12.50L193.61 12.50Q193.59 12.48 193.57 12.45L193.57 12.45L193.57 12.45Q193.55 12.41 193.54 12.40L193.54 12.40L187.43 4.56L187.50 11.22L187.50 11.22Q187.50 11.67 187.67 11.77L187.67 11.77L187.67 11.77Q187.82 11.87 188.54 11.87L188.54 11.87L188.77 11.87L188.77 12.41L185.83 12.41L185.83 11.87L186.26 11.87L186.26 11.87Q186.63 11.87 186.74 11.76L186.74 11.76L186.74 11.76Q186.84 11.66 186.85 11.25L186.85 11.25L186.85 3.80L186.70 3.64L185.61 3.64ZM202.97 10.04L202.97 10.04L203.46 9.98L203.64 10.85L203.64 10.85Q203.75 11.33 203.82 11.41L203.82 11.41L203.82 11.41Q203.89 11.49 204.30 11.64L204.30 11.64L204.30 11.64Q205.14 11.95 206.04 11.95L206.04 11.95L206.04 11.95Q206.82 11.95 207.36 11.49L207.36 11.49L207.36 11.49Q207.89 11.04 207.89 10.26L207.89 10.26L207.89 10.26Q207.89 9.65 207.44 9.21L207.44 9.21L207.44 9.21Q206.96 8.76 206.10 8.30L206.10 8.30L205.53 7.98L205.53 7.98Q204.78 7.55 204.55 7.36L204.55 7.36L204.55 7.36Q204.19 7.08 203.88 6.59L203.88 6.59L203.88 6.59Q203.57 6.10 203.57 5.46L203.57 5.46L203.57 5.46Q203.57 4.39 204.41 3.68L204.41 3.68L204.41 3.68Q205.25 2.97 206.36 2.97L206.36 2.97L206.36 2.97Q206.64 2.97 206.99 3.04L206.99 3.04L206.99 3.04Q207.18 3.08 207.52 3.17L207.52 3.17L207.76 3.25L207.76 3.25Q207.85 3.25 207.89 3.16L207.89 3.16L207.89 3.16Q207.95 3.05 207.95 2.98L207.95 2.98L207.96 2.88L208.44 2.85L208.65 5.41L208.15 5.43L208.02 4.18L208.02 4.18Q207.28 3.62 206.12 3.62L206.12 3.62L206.12 3.62Q205.47 3.62 204.97 4.05L204.97 4.05L204.97 4.05Q204.49 4.47 204.49 5.12L204.49 5.12L204.49 5.12Q204.49 5.72 204.94 6.17L204.94 6.17L204.94 6.17Q205.37 6.60 206.24 7.08L206.24 7.08L207.01 7.50L207.01 7.50Q207.96 8.03 208.50 8.59L208.50 8.59L208.50 8.59Q209.03 9.15 209.03 9.92L209.03 9.92L209.03 9.92Q209.03 10.99 208.17 11.76L208.17 11.76L208.17 11.76Q207.31 12.54 205.85 12.54L205.85 12.54L205.85 12.54Q205.29 12.54 204.79 12.41L204.79 12.41L204.79 12.41Q204.29 12.29 204.23 12.29L204.23 12.29L204.23 12.29Q203.98 12.29 203.98 12.58L203.98 12.58L203.99 12.76L203.51 12.80L203.51 12.80Q203.45 12.41 202.97 10.04ZM220.94 12.41L217.21 12.41L217.21 11.87L217.65 11.87L217.65 11.87Q218.03 11.87 218.08 11.81L218.08 11.81L218.08 11.81Q218.15 11.74 218.16 11.46L218.16 11.46L218.16 4.14L218.16 4.14Q218.16 3.81 218.07 3.72L218.07 3.72L218.07 3.72Q217.98 3.64 217.62 3.64L217.62 3.64L217.25 3.64L217.27 3.08L220.15 3.08L220.15 3.08Q221.30 3.08 221.95 3.19L221.95 3.19L221.95 3.19Q222.55 3.28 223.02 3.68L223.02 3.68L223.02 3.68Q224.21 4.64 224.21 6.19L224.21 6.19L224.21 6.19Q224.21 7.23 223.45 7.98L223.45 7.98L223.45 7.98Q222.67 8.74 221.26 8.73L221.26 8.73L221.26 8.73Q221.09 8.73 220.67 8.70L220.67 8.70L220.67 8.70Q220.56 8.69 220.14 8.62L220.14 8.62L220.14 8.62Q219.80 8.55 219.71 8.54L219.71 8.54L219.71 8.54Q219.41 8.47 219.40 8.46L219.40 8.46L219.28 8.44L219.28 11.46L219.28 11.46Q219.28 11.74 219.41 11.81L219.41 11.81L219.41 11.81Q219.52 11.87 220.24 11.87L220.24 11.87L220.94 11.87L220.94 12.41ZM219.28 4.28L219.28 8.02L219.28 8.02Q219.63 8.29 220.60 8.29L220.60 8.29L220.60 8.29Q221.74 8.29 222.31 7.75L222.31 7.75L222.31 7.75Q222.90 7.21 222.90 6.16L222.90 6.16L222.90 6.16Q222.90 4.98 221.99 4.31L221.99 4.31L221.99 4.31Q221.09 3.64 219.71 3.64L219.71 3.64L219.71 3.64Q219.45 3.64 219.37 3.75L219.37 3.75L219.37 3.75Q219.29 3.84 219.28 4.28L219.28 4.28ZM232.57 7.83L232.57 7.83L232.57 7.83Q232.57 6.62 232.98 5.68L232.98 5.68L232.98 5.68Q233.39 4.72 234.08 4.12L234.08 4.12L234.08 4.12Q234.77 3.51 235.63 3.19L235.63 3.19L235.63 3.19Q236.48 2.88 237.43 2.88L237.43 2.88L237.43 2.88Q238.68 2.88 239.74 3.40L239.74 3.40L239.74 3.40Q240.82 3.93 241.53 5.07L241.53 5.07L241.53 5.07Q242.22 6.17 242.23 7.75L242.23 7.75L242.23 7.75Q242.23 8.70 241.92 9.54L241.92 9.54L241.92 9.54Q241.62 10.38 241.01 11.10L241.01 11.10L241.01 11.10Q240.41 11.81 239.47 12.22L239.47 12.22L239.47 12.22Q238.51 12.63 237.32 12.64L237.32 12.64L237.32 12.64Q236.18 12.64 235.25 12.23L235.25 12.23L235.25 12.23Q234.31 11.83 233.75 11.14L233.75 11.14L233.75 11.14Q233.17 10.45 232.88 9.60L232.88 9.60L232.88 9.60Q232.57 8.72 232.57 7.83ZM233.83 7.38L233.83 7.38L233.83 7.38Q233.83 8.52 234.26 9.60L234.26 9.60L234.26 9.60Q234.66 10.64 235.59 11.33L235.59 11.33L235.59 11.33Q236.50 12.03 237.69 12.04L237.69 12.04L237.69 12.04Q239.07 12.04 240.00 11.01L240.00 11.01L240.00 11.01Q240.95 9.97 240.95 8.10L240.95 8.10L240.95 8.10Q240.95 5.99 239.79 4.72L239.79 4.72L239.79 4.72Q238.64 3.46 237.13 3.45L237.13 3.45L237.13 3.45Q236.61 3.45 236.07 3.65L236.07 3.65L236.07 3.65Q235.53 3.85 235.02 4.25L235.02 4.25L235.02 4.25Q234.47 4.68 234.15 5.48L234.15 5.48L234.15 5.48Q233.83 6.27 233.83 7.38ZM250.68 3.64L250.29 3.64L250.30 3.08L253.52 3.08L253.52 3.08Q254.66 3.08 255.26 3.21L255.26 3.21L255.26 3.21Q255.90 3.37 256.37 3.75L256.37 3.75L256.37 3.75Q257.37 4.57 257.37 5.71L257.37 5.71L257.37 5.71Q257.37 6.43 256.90 7.04L256.90 7.04L256.90 7.04Q256.41 7.66 255.38 7.92L255.38 7.92L258.06 11.49L258.06 11.49Q258.37 11.87 258.67 11.87L258.67 11.87L259.27 11.87L259.29 12.41L257.26 12.41L254.27 8.10L254.10 8.10L254.10 8.10Q254.06 8.10 254.00 8.11L254.00 8.11L254.00 8.11Q253.95 8.11 253.93 8.11L253.93 8.11L253.93 8.11Q253.05 8.11 252.66 8.03L252.66 8.03L252.66 11.46L252.66 11.46Q252.66 11.76 252.80 11.81L252.80 11.81L252.80 11.81Q252.92 11.87 253.63 11.87L253.63 11.87L254.34 11.87L254.31 12.41L250.58 12.41L250.58 11.87L250.91 11.87L250.91 11.87Q251.37 11.87 251.44 11.81L251.44 11.81L251.44 11.81Q251.52 11.74 251.52 11.46L251.52 11.46L251.52 4.14L251.52 4.14Q251.52 3.82 251.33 3.73L251.33 3.73L251.33 3.73Q251.10 3.64 250.68 3.64L250.68 3.64ZM252.66 4.28L252.66 7.57L252.66 7.57Q252.84 7.70 253.55 7.71L253.55 7.71L253.55 7.71Q254.82 7.71 255.40 7.27L255.40 7.27L255.40 7.27Q255.99 6.84 255.99 5.92L255.99 5.92L255.99 5.92Q255.99 4.92 255.22 4.27L255.22 4.27L255.22 4.27Q254.46 3.64 253.08 3.64L253.08 3.64L253.08 3.64Q252.83 3.64 252.75 3.75L252.75 3.75L252.75 3.75Q252.66 3.84 252.66 4.28L252.66 4.28ZM267.33 5.35L266.83 5.33L266.83 5.33Q266.95 4.17 267.03 3.08L267.03 3.08L275.11 3.08L275.11 3.08Q275.03 4.13 275.00 4.53L275.00 4.53L275.00 4.53Q274.96 5.26 274.94 5.32L274.94 5.32L274.44 5.30L274.44 5.30Q274.52 4.34 274.52 4.16L274.52 4.16L274.52 4.16Q274.52 3.88 274.38 3.79L274.38 3.79L274.38 3.79Q274.21 3.69 273.81 3.69L273.81 3.69L272.20 3.69L272.20 3.69Q271.69 3.69 271.57 3.79L271.57 3.79L271.57 3.79Q271.48 3.87 271.47 4.36L271.47 4.36L271.47 11.22L271.47 11.22Q271.47 11.66 271.61 11.76L271.61 11.76L271.61 11.76Q271.77 11.87 272.28 11.87L272.28 11.87L272.84 11.87L272.86 12.41L269.17 12.40L269.17 11.87L269.38 11.87L269.38 11.87Q270.05 11.87 270.20 11.79L270.20 11.79L270.20 11.79Q270.34 11.70 270.34 11.28L270.34 11.28L270.34 4.48L270.34 4.48Q270.34 3.92 270.24 3.80L270.24 3.80L270.24 3.80Q270.14 3.69 269.72 3.69L269.72 3.69L268.25 3.69L268.25 3.69Q268.06 3.69 268.00 3.71L268.00 3.71L268.00 3.71Q267.93 3.72 267.82 3.72L267.82 3.72L267.82 3.72Q267.79 3.72 267.67 3.79L267.67 3.79L267.67 3.79Q267.59 3.84 267.57 3.86L267.57 3.86L267.57 3.86Q267.54 3.88 267.50 3.99L267.50 3.99L267.50 3.99Q267.47 4.05 267.44 4.14L267.44 4.14L267.44 4.14Q267.42 4.21 267.39 4.36L267.39 4.36L267.39 4.36Q267.37 4.59 267.37 4.61L267.37 4.61L267.37 4.61Q267.37 4.80 267.35 4.95L267.35 4.95L267.35 4.95Q267.35 5.02 267.35 5.15L267.35 5.15L267.35 5.15Q267.34 5.29 267.33 5.35L267.33 5.35ZM292.80 7.83L292.80 7.83L292.80 7.83Q292.80 6.62 293.21 5.68L293.21 5.68L293.21 5.68Q293.62 4.72 294.31 4.12L294.31 4.12L294.31 4.12Q295.00 3.51 295.87 3.19L295.87 3.19L295.87 3.19Q296.71 2.88 297.66 2.88L297.66 2.88L297.66 2.88Q298.92 2.88 299.97 3.40L299.97 3.40L299.97 3.40Q301.05 3.93 301.76 5.07L301.76 5.07L301.76 5.07Q302.46 6.17 302.46 7.75L302.46 7.75L302.46 7.75Q302.46 8.70 302.16 9.54L302.16 9.54L302.16 9.54Q301.85 10.38 301.24 11.10L301.24 11.10L301.24 11.10Q300.64 11.81 299.70 12.22L299.70 12.22L299.70 12.22Q298.74 12.63 297.55 12.64L297.55 12.64L297.55 12.64Q296.41 12.64 295.48 12.23L295.48 12.23L295.48 12.23Q294.54 11.83 293.98 11.14L293.98 11.14L293.98 11.14Q293.41 10.45 293.11 9.60L293.11 9.60L293.11 9.60Q292.80 8.72 292.80 7.83ZM294.06 7.38L294.06 7.38L294.06 7.38Q294.06 8.52 294.49 9.60L294.49 9.60L294.49 9.60Q294.90 10.64 295.83 11.33L295.83 11.33L295.83 11.33Q296.73 12.03 297.92 12.04L297.92 12.04L297.92 12.04Q299.30 12.04 300.23 11.01L300.23 11.01L300.23 11.01Q301.18 9.97 301.18 8.10L301.18 8.10L301.18 8.10Q301.18 5.99 300.02 4.72L300.02 4.72L300.02 4.72Q298.87 3.46 297.36 3.45L297.36 3.45L297.36 3.45Q296.84 3.45 296.30 3.65L296.30 3.65L296.30 3.65Q295.76 3.85 295.25 4.25L295.25 4.25L295.25 4.25Q294.70 4.68 294.38 5.48L294.38 5.48L294.38 5.48Q294.06 6.27 294.06 7.38ZM310.96 8.02L310.96 8.02L310.96 8.02Q310.96 6.86 311.43 5.83L311.43 5.83L311.43 5.83Q311.90 4.85 312.65 4.27L312.65 4.27L312.65 4.27Q313.39 3.69 314.29 3.37L314.29 3.37L314.29 3.37Q315.18 3.05 316.03 3.05L316.03 3.05L316.03 3.05Q316.89 3.05 317.56 3.16L317.56 3.16L317.56 3.16Q318.19 3.26 318.49 3.37L318.49 3.37L318.49 3.37Q318.79 3.48 318.83 3.48L318.83 3.48L318.83 3.48Q319.00 3.48 319.02 3.41L319.02 3.41L319.02 3.41Q319.05 3.33 319.05 3.09L319.05 3.09L319.05 2.97L319.58 2.97L319.58 2.97Q319.62 4.30 319.75 5.64L319.75 5.64L319.25 5.65L319.25 5.65Q319.22 5.40 319.20 5.26L319.20 5.26L319.20 5.26Q319.20 5.20 319.20 5.13L319.20 5.13L319.20 5.13Q319.19 5.07 319.18 5.02L319.18 5.02L319.18 5.02Q319.18 4.98 319.18 4.95L319.18 4.95L319.18 4.95Q319.15 4.84 319.15 4.74L319.15 4.74L319.15 4.74Q319.15 4.68 319.11 4.59L319.11 4.59L319.11 4.59Q319.11 4.57 319.08 4.55L319.08 4.55L319.08 4.55Q319.05 4.52 319.05 4.50L319.05 4.50L319.05 4.50Q319.02 4.44 318.95 4.41L318.95 4.41L318.95 4.41Q318.91 4.38 318.88 4.37L318.88 4.37L318.88 4.37Q318.86 4.36 318.83 4.35L318.83 4.35L318.83 4.35Q318.81 4.35 318.79 4.33L318.79 4.33L318.79 4.33Q318.77 4.31 318.73 4.29L318.73 4.29L318.73 4.29Q318.68 4.27 318.64 4.25L318.64 4.25L318.64 4.25Q318.42 4.16 318.39 4.14L318.39 4.14L318.39 4.14Q318.04 3.96 317.40 3.83L317.40 3.83L317.40 3.83Q316.73 3.71 316.07 3.71L316.07 3.71L316.07 3.71Q314.34 3.71 313.25 4.84L313.25 4.84L313.25 4.84Q312.14 5.99 312.15 7.62L312.15 7.62L312.15 7.62Q312.15 9.35 313.37 10.69L313.37 10.69L313.37 10.69Q314.57 12.02 316.39 12.02L316.39 12.02L316.39 12.02Q317.39 12.02 318.34 11.49L318.34 11.49L318.34 11.49Q319.29 10.94 319.31 10.58L319.31 10.58L319.35 9.41L319.85 9.41L319.76 11.45L319.76 11.45Q319.70 11.49 319.57 11.57L319.57 11.57L319.57 11.57Q319.51 11.60 319.05 11.85L319.05 11.85L319.05 11.85Q318.67 12.05 318.23 12.23L318.23 12.23L318.23 12.23Q317.86 12.39 317.21 12.51L317.21 12.51L317.21 12.51Q316.61 12.63 316.04 12.64L316.04 12.64L316.04 12.64Q313.66 12.64 312.30 11.39L312.30 11.39L312.30 11.39Q310.96 10.14 310.96 8.02ZM328.26 8.02L328.26 8.02L328.26 8.02Q328.26 6.86 328.73 5.83L328.73 5.83L328.73 5.83Q329.20 4.85 329.95 4.27L329.95 4.27L329.95 4.27Q330.70 3.69 331.59 3.37L331.59 3.37L331.59 3.37Q332.49 3.05 333.33 3.05L333.33 3.05L333.33 3.05Q334.20 3.05 334.87 3.16L334.87 3.16L334.87 3.16Q335.49 3.26 335.79 3.37L335.79 3.37L335.79 3.37Q336.10 3.48 336.13 3.48L336.13 3.48L336.13 3.48Q336.30 3.48 336.32 3.41L336.32 3.41L336.32 3.41Q336.35 3.33 336.35 3.09L336.35 3.09L336.35 2.97L336.88 2.97L336.88 2.97Q336.92 4.30 337.05 5.64L337.05 5.64L336.55 5.65L336.55 5.65Q336.52 5.40 336.51 5.26L336.51 5.26L336.51 5.26Q336.51 5.20 336.50 5.13L336.50 5.13L336.50 5.13Q336.49 5.07 336.49 5.02L336.49 5.02L336.49 5.02Q336.48 4.98 336.48 4.95L336.48 4.95L336.48 4.95Q336.45 4.84 336.45 4.74L336.45 4.74L336.45 4.74Q336.45 4.68 336.41 4.59L336.41 4.59L336.41 4.59Q336.41 4.57 336.38 4.55L336.38 4.55L336.38 4.55Q336.35 4.52 336.35 4.50L336.35 4.50L336.35 4.50Q336.32 4.44 336.25 4.41L336.25 4.41L336.25 4.41Q336.21 4.38 336.18 4.37L336.18 4.37L336.18 4.37Q336.16 4.36 336.13 4.35L336.13 4.35L336.13 4.35Q336.12 4.35 336.09 4.33L336.09 4.33L336.09 4.33Q336.07 4.31 336.03 4.29L336.03 4.29L336.03 4.29Q335.99 4.27 335.95 4.25L335.95 4.25L335.95 4.25Q335.72 4.16 335.69 4.14L335.69 4.14L335.69 4.14Q335.34 3.96 334.70 3.83L334.70 3.83L334.70 3.83Q334.03 3.71 333.37 3.71L333.37 3.71L333.37 3.71Q331.65 3.71 330.55 4.84L330.55 4.84L330.55 4.84Q329.44 5.99 329.45 7.62L329.45 7.62L329.45 7.62Q329.45 9.35 330.67 10.69L330.67 10.69L330.67 10.69Q331.87 12.02 333.69 12.02L333.69 12.02L333.69 12.02Q334.69 12.02 335.64 11.49L335.64 11.49L335.64 11.49Q336.59 10.94 336.62 10.58L336.62 10.58L336.66 9.41L337.15 9.41L337.07 11.45L337.07 11.45Q337.00 11.49 336.87 11.57L336.87 11.57L336.87 11.57Q336.81 11.60 336.35 11.85L336.35 11.85L336.35 11.85Q335.97 12.05 335.53 12.23L335.53 12.23L335.53 12.23Q335.17 12.39 334.52 12.51L334.52 12.51L334.52 12.51Q333.91 12.63 333.34 12.64L333.34 12.64L333.34 12.64Q330.96 12.64 329.60 11.39L329.60 11.39L329.60 11.39Q328.26 10.14 328.26 8.02ZM345.56 3.64L345.18 3.64L345.18 3.08L348.54 3.08L348.56 3.64L348.02 3.64L348.02 3.64Q347.59 3.64 347.44 3.73L347.44 3.73L347.44 3.73Q347.27 3.83 347.27 4.16L347.27 4.16L347.27 9.33L347.27 9.33Q347.27 9.63 347.30 9.78L347.30 9.78L347.30 9.78Q347.34 10.01 347.50 10.41L347.50 10.41L347.50 10.41Q347.68 10.80 347.97 11.09L347.97 11.09L347.97 11.09Q348.28 11.40 348.84 11.63L348.84 11.63L348.84 11.63Q349.41 11.85 350.19 11.85L350.19 11.85L350.19 11.85Q351.05 11.85 351.59 11.67L351.59 11.67L351.59 11.67Q352.15 11.48 352.46 11.22L352.46 11.22L352.46 11.22Q352.77 10.96 352.91 10.49L352.91 10.49L352.91 10.49Q353.08 9.95 353.09 9.66L353.09 9.66L353.09 9.66Q353.12 9.18 353.12 8.67L353.12 8.67L353.12 4.14L353.12 4.14Q353.12 3.81 352.98 3.72L352.98 3.72L352.98 3.72Q352.83 3.64 352.35 3.64L352.35 3.64L351.86 3.64L351.89 3.08L354.52 3.08L354.52 3.64L354.33 3.64L354.33 3.64Q354.01 3.64 353.89 3.75L353.89 3.75L353.89 3.75Q353.78 3.86 353.78 4.25L353.78 4.25L353.78 9.22L353.78 9.22Q353.78 12.67 350.19 12.67L350.19 12.67L350.19 12.67Q348.02 12.67 347.07 11.76L347.07 11.76L347.07 11.76Q346.14 10.86 346.14 9.41L346.14 9.41L346.14 4.14L346.14 4.14Q346.14 3.81 346.04 3.72L346.04 3.72L346.04 3.72Q345.93 3.64 345.56 3.64L345.56 3.64ZM365.98 12.41L362.26 12.41L362.26 11.87L362.69 11.87L362.69 11.87Q363.07 11.87 363.13 11.81L363.13 11.81L363.13 11.81Q363.19 11.74 363.20 11.46L363.20 11.46L363.20 4.14L363.20 4.14Q363.20 3.81 363.11 3.72L363.11 3.72L363.11 3.72Q363.03 3.64 362.67 3.64L362.67 3.64L362.30 3.64L362.31 3.08L365.20 3.08L365.20 3.08Q366.34 3.08 366.99 3.19L366.99 3.19L366.99 3.19Q367.60 3.28 368.07 3.68L368.07 3.68L368.07 3.68Q369.26 4.64 369.26 6.19L369.26 6.19L369.26 6.19Q369.26 7.23 368.49 7.98L368.49 7.98L368.49 7.98Q367.71 8.74 366.30 8.73L366.30 8.73L366.30 8.73Q366.13 8.73 365.72 8.70L365.72 8.70L365.72 8.70Q365.61 8.69 365.18 8.62L365.18 8.62L365.18 8.62Q364.85 8.55 364.75 8.54L364.75 8.54L364.75 8.54Q364.46 8.47 364.44 8.46L364.44 8.46L364.33 8.44L364.33 11.46L364.33 11.46Q364.33 11.74 364.46 11.81L364.46 11.81L364.46 11.81Q364.57 11.87 365.29 11.87L365.29 11.87L365.98 11.87L365.98 12.41ZM364.33 4.28L364.33 8.02L364.33 8.02Q364.68 8.29 365.65 8.29L365.65 8.29L365.65 8.29Q366.78 8.29 367.36 7.75L367.36 7.75L367.36 7.75Q367.94 7.21 367.94 6.16L367.94 6.16L367.94 6.16Q367.94 4.98 367.04 4.31L367.04 4.31L367.04 4.31Q366.14 3.64 364.75 3.64L364.75 3.64L364.75 3.64Q364.50 3.64 364.42 3.75L364.42 3.75L364.42 3.75Q364.33 3.84 364.33 4.28L364.33 4.28ZM377.25 12.41L377.23 11.87L377.41 11.87L377.41 11.87Q377.79 11.87 377.92 11.73L377.92 11.73L377.92 11.73Q378.05 11.57 378.38 10.83L378.38 10.83L379.29 8.82L379.87 7.53L379.87 7.53Q380.13 6.97 380.17 6.86L380.17 6.86L380.17 6.86Q380.24 6.70 380.29 6.60L380.29 6.60L380.29 6.60Q380.34 6.51 380.36 6.45L380.36 6.45L380.45 6.21L381.88 2.74L382.18 2.74L382.18 2.74Q383.03 4.98 385.22 10.25L385.22 10.25L385.22 10.25Q385.67 11.34 385.86 11.64L385.86 11.64L385.86 11.64Q386.00 11.87 386.44 11.87L386.44 11.87L386.65 11.87L386.63 12.41L383.44 12.41L383.46 11.87L383.87 11.87L383.87 11.87Q384.49 11.87 384.49 11.70L384.49 11.70L384.49 11.70Q384.49 11.63 384.35 11.27L384.35 11.27L383.31 8.72L380.06 8.72L378.96 11.18L378.96 11.18Q378.82 11.50 378.82 11.63L378.82 11.63L378.82 11.63Q378.82 11.79 378.92 11.83L378.92 11.83L378.92 11.83Q379.01 11.87 379.39 11.87L379.39 11.87L379.97 11.87L379.97 12.41L377.25 12.41ZM381.75 4.79L380.33 8.10L383.07 8.10L381.75 4.79ZM394.39 3.64L394.38 3.08L396.55 3.08L402.29 10.48L402.29 4.14L402.29 4.14Q402.29 3.81 402.13 3.72L402.13 3.72L402.13 3.72Q401.98 3.64 401.52 3.64L401.52 3.64L401.03 3.64L401.06 3.08L404.04 3.08L404.04 3.64L403.72 3.64L403.72 3.64Q403.25 3.64 403.10 3.75L403.10 3.75L403.10 3.75Q402.95 3.86 402.95 4.25L402.95 4.25L402.95 12.32L402.95 12.47L402.95 12.47Q402.95 12.52 402.94 12.57L402.94 12.57L402.94 12.57Q402.92 12.61 402.89 12.64L402.89 12.64L402.89 12.64Q402.88 12.65 402.82 12.65L402.82 12.65L402.63 12.65L402.57 12.65L402.54 12.65L402.51 12.64L402.51 12.64Q402.49 12.64 402.47 12.63L402.47 12.63L402.47 12.63Q402.46 12.61 402.46 12.60L402.46 12.60L402.46 12.60Q402.46 12.58 402.45 12.57L402.45 12.57L402.45 12.57Q402.42 12.54 402.39 12.50L402.39 12.50L402.39 12.50Q402.38 12.48 402.36 12.45L402.36 12.45L402.36 12.45Q402.34 12.41 402.32 12.40L402.32 12.40L396.22 4.56L396.29 11.22L396.29 11.22Q396.29 11.67 396.45 11.77L396.45 11.77L396.45 11.77Q396.61 11.87 397.32 11.87L397.32 11.87L397.56 11.87L397.56 12.41L394.62 12.41L394.62 11.87L395.04 11.87L395.04 11.87Q395.42 11.87 395.53 11.76L395.53 11.76L395.53 11.76Q395.62 11.66 395.63 11.25L395.63 11.25L395.63 3.80L395.49 3.64L394.39 3.64ZM412.16 8.02L412.16 8.02L412.16 8.02Q412.16 6.86 412.63 5.83L412.63 5.83L412.63 5.83Q413.10 4.85 413.85 4.27L413.85 4.27L413.85 4.27Q414.59 3.69 415.49 3.37L415.49 3.37L415.49 3.37Q416.38 3.05 417.22 3.05L417.22 3.05L417.22 3.05Q418.09 3.05 418.76 3.16L418.76 3.16L418.76 3.16Q419.39 3.26 419.69 3.37L419.69 3.37L419.69 3.37Q419.99 3.48 420.03 3.48L420.03 3.48L420.03 3.48Q420.20 3.48 420.22 3.41L420.22 3.41L420.22 3.41Q420.25 3.33 420.25 3.09L420.25 3.09L420.25 2.97L420.78 2.97L420.78 2.97Q420.82 4.30 420.95 5.64L420.95 5.64L420.44 5.65L420.44 5.65Q420.42 5.40 420.40 5.26L420.40 5.26L420.40 5.26Q420.40 5.20 420.40 5.13L420.40 5.13L420.40 5.13Q420.39 5.07 420.38 5.02L420.38 5.02L420.38 5.02Q420.38 4.98 420.38 4.95L420.38 4.95L420.38 4.95Q420.35 4.84 420.35 4.74L420.35 4.74L420.35 4.74Q420.35 4.68 420.31 4.59L420.31 4.59L420.31 4.59Q420.31 4.57 420.28 4.55L420.28 4.55L420.28 4.55Q420.25 4.52 420.25 4.50L420.25 4.50L420.25 4.50Q420.22 4.44 420.15 4.41L420.15 4.41L420.15 4.41Q420.11 4.38 420.08 4.37L420.08 4.37L420.08 4.37Q420.05 4.36 420.03 4.35L420.03 4.35L420.03 4.35Q420.01 4.35 419.99 4.33L419.99 4.33L419.99 4.33Q419.97 4.31 419.92 4.29L419.92 4.29L419.92 4.29Q419.88 4.27 419.84 4.25L419.84 4.25L419.84 4.25Q419.62 4.16 419.59 4.14L419.59 4.14L419.59 4.14Q419.24 3.96 418.60 3.83L418.60 3.83L418.60 3.83Q417.93 3.71 417.27 3.71L417.27 3.71L417.27 3.71Q415.54 3.71 414.45 4.84L414.45 4.84L414.45 4.84Q413.34 5.99 413.35 7.62L413.35 7.62L413.35 7.62Q413.35 9.35 414.57 10.69L414.57 10.69L414.57 10.69Q415.77 12.02 417.59 12.02L417.59 12.02L417.59 12.02Q418.59 12.02 419.54 11.49L419.54 11.49L419.54 11.49Q420.49 10.94 420.51 10.58L420.51 10.58L420.55 9.41L421.05 9.41L420.96 11.45L420.96 11.45Q420.90 11.49 420.77 11.57L420.77 11.57L420.77 11.57Q420.71 11.60 420.25 11.85L420.25 11.85L420.25 11.85Q419.87 12.05 419.43 12.23L419.43 12.23L419.43 12.23Q419.06 12.39 418.41 12.51L418.41 12.51L418.41 12.51Q417.81 12.63 417.24 12.64L417.24 12.64L417.24 12.64Q414.86 12.64 413.50 11.39L413.50 11.39L413.50 11.39Q412.16 10.14 412.16 8.02ZM429.22 3.64L429.22 3.64L429.24 3.08L432.37 3.08L432.37 3.64L432.09 3.64L432.09 3.64Q431.64 3.64 431.53 3.66L431.53 3.66L431.53 3.66Q431.36 3.71 431.36 3.82L431.36 3.82L431.36 3.82Q431.36 3.89 431.61 4.31L431.61 4.31L433.62 7.46L436.06 3.99L436.06 3.99Q436.15 3.83 436.15 3.82L436.15 3.82L436.15 3.82Q436.15 3.64 435.24 3.64L435.24 3.64L435.02 3.64L435.00 3.08L437.55 3.08L437.55 3.64L437.48 3.64L437.48 3.64Q437.13 3.64 436.99 3.72L436.99 3.72L436.99 3.72Q436.83 3.80 436.54 4.22L436.54 4.22L433.82 8.17L433.82 11.22L433.82 11.22Q433.82 11.66 433.92 11.77L433.92 11.77L433.92 11.77Q434.02 11.87 434.64 11.87L434.64 11.87L435.27 11.87L435.25 12.41L431.32 12.41L431.33 11.87L431.89 11.87L431.89 11.87Q432.43 11.87 432.55 11.79L432.55 11.79L432.55 11.79Q432.68 11.70 432.68 11.25L432.68 11.25L432.68 8.06L430.38 4.49L430.38 4.49Q429.97 3.84 429.84 3.73L429.84 3.73L429.84 3.73Q429.73 3.64 429.22 3.64ZM455.44 3.64L454.86 3.64L454.87 3.08L458.38 3.08L458.38 3.64L458.15 3.64L458.15 3.64Q457.60 3.64 457.43 3.73L457.43 3.73L457.43 3.73Q457.30 3.81 457.30 4.28L457.30 4.28L457.30 11.22L457.30 11.22Q457.30 11.68 457.41 11.77L457.41 11.77L457.41 11.77Q457.52 11.87 458.05 11.87L458.05 11.87L458.60 11.87L458.61 12.41L455.03 12.41L455.01 11.87L455.38 11.87L455.38 11.87Q455.94 11.87 456.05 11.77L456.05 11.77L456.05 11.77Q456.16 11.67 456.16 11.25L456.16 11.25L456.16 4.14L456.16 4.14Q456.16 3.77 456.06 3.71L456.06 3.71L456.06 3.71Q455.95 3.64 455.44 3.64L455.44 3.64ZM466.36 3.64L466.35 3.08L468.52 3.08L474.26 10.48L474.26 4.14L474.26 4.14Q474.26 3.81 474.10 3.72L474.10 3.72L474.10 3.72Q473.95 3.64 473.49 3.64L473.49 3.64L473.00 3.64L473.03 3.08L476.01 3.08L476.01 3.64L475.69 3.64L475.69 3.64Q475.22 3.64 475.07 3.75L475.07 3.75L475.07 3.75Q474.92 3.86 474.92 4.25L474.92 4.25L474.92 12.32L474.92 12.47L474.92 12.47Q474.92 12.52 474.91 12.57L474.91 12.57L474.91 12.57Q474.89 12.61 474.86 12.64L474.86 12.64L474.86 12.64Q474.84 12.65 474.79 12.65L474.79 12.65L474.60 12.65L474.54 12.65L474.51 12.65L474.48 12.64L474.48 12.64Q474.46 12.64 474.44 12.63L474.44 12.63L474.44 12.63Q474.43 12.61 474.43 12.60L474.43 12.60L474.43 12.60Q474.43 12.58 474.41 12.57L474.41 12.57L474.41 12.57Q474.39 12.54 474.36 12.50L474.36 12.50L474.36 12.50Q474.35 12.48 474.33 12.45L474.33 12.45L474.33 12.45Q474.30 12.41 474.29 12.40L474.29 12.40L468.19 4.56L468.25 11.22L468.25 11.22Q468.25 11.67 468.42 11.77L468.42 11.77L468.42 11.77Q468.58 11.87 469.29 11.87L469.29 11.87L469.53 11.87L469.53 12.41L466.59 12.41L466.59 11.87L467.01 11.87L467.01 11.87Q467.39 11.87 467.50 11.76L467.50 11.76L467.50 11.76Q467.59 11.66 467.60 11.25L467.60 11.25L467.60 3.80L467.46 3.64L466.36 3.64ZM483.76 3.64L483.75 3.08L490.93 3.08L490.93 3.08Q490.94 4.14 491.00 5.28L491.00 5.28L490.45 5.30L490.45 5.30Q490.44 4.66 490.38 4.25L490.38 4.25L490.38 4.25Q490.34 3.89 490.29 3.80L490.29 3.80L490.29 3.80Q490.23 3.71 490.12 3.69L490.12 3.69L490.12 3.69Q490.02 3.68 489.43 3.68L489.43 3.68L487.05 3.68L487.05 3.68Q486.51 3.68 486.36 3.77L486.36 3.77L486.36 3.77Q486.24 3.86 486.24 4.33L486.24 4.33L486.24 6.28L486.24 6.28Q486.24 6.69 486.29 6.76L486.29 6.76L486.29 6.76Q486.36 6.84 486.70 6.84L486.70 6.84L488.82 6.84L488.82 6.84Q489.18 6.84 489.26 6.74L489.26 6.74L489.26 6.74Q489.34 6.64 489.34 6.17L489.34 6.17L489.34 5.63L489.86 5.63L489.86 8.97L489.34 8.97L489.34 8.26L489.34 8.26Q489.34 7.68 489.26 7.57L489.26 7.57L489.26 7.57Q489.18 7.46 488.84 7.46L488.84 7.46L486.75 7.46L486.75 7.46Q486.41 7.46 486.33 7.54L486.33 7.54L486.33 7.54Q486.24 7.63 486.24 7.89L486.24 7.89L486.24 11.20L486.24 11.20Q486.24 11.60 486.31 11.73L486.31 11.73L486.31 11.73Q486.39 11.87 486.66 11.87L486.66 11.87L487.59 11.87L487.59 12.41L484.00 12.41L484.00 11.87L484.41 11.87L484.41 11.87Q484.91 11.87 485.01 11.79L485.01 11.79L485.01 11.79Q485.11 11.70 485.11 11.33L485.11 11.33L485.11 4.24L485.11 4.24Q485.11 3.79 484.93 3.71L484.93 3.71L484.93 3.71Q484.80 3.64 483.76 3.64L483.76 3.64ZM499.43 7.83L499.43 7.83L499.43 7.83Q499.43 6.62 499.83 5.68L499.83 5.68L499.83 5.68Q500.25 4.72 500.94 4.12L500.94 4.12L500.94 4.12Q501.63 3.51 502.49 3.19L502.49 3.19L502.49 3.19Q503.33 2.88 504.28 2.88L504.28 2.88L504.28 2.88Q505.54 2.88 506.59 3.40L506.59 3.40L506.59 3.40Q507.67 3.93 508.38 5.07L508.38 5.07L508.38 5.07Q509.08 6.17 509.09 7.75L509.09 7.75L509.09 7.75Q509.09 8.70 508.78 9.54L508.78 9.54L508.78 9.54Q508.47 10.38 507.87 11.10L507.87 11.10L507.87 11.10Q507.26 11.81 506.32 12.22L506.32 12.22L506.32 12.22Q505.36 12.63 504.17 12.64L504.17 12.64L504.17 12.64Q503.04 12.64 502.10 12.23L502.10 12.23L502.10 12.23Q501.16 11.83 500.60 11.14L500.60 11.14L500.60 11.14Q500.03 10.45 499.73 9.60L499.73 9.60L499.73 9.60Q499.43 8.72 499.43 7.83ZM500.68 7.38L500.68 7.38L500.68 7.38Q500.68 8.52 501.12 9.60L501.12 9.60L501.12 9.60Q501.52 10.64 502.45 11.33L502.45 11.33L502.45 11.33Q503.36 12.03 504.55 12.04L504.55 12.04L504.55 12.04Q505.92 12.04 506.86 11.01L506.86 11.01L506.86 11.01Q507.81 9.97 507.81 8.10L507.81 8.10L507.81 8.10Q507.81 5.99 506.65 4.72L506.65 4.72L506.65 4.72Q505.50 3.46 503.99 3.45L503.99 3.45L503.99 3.45Q503.47 3.45 502.92 3.65L502.92 3.65L502.92 3.65Q502.38 3.85 501.87 4.25L501.87 4.25L501.87 4.25Q501.33 4.68 501.01 5.48L501.01 5.48L501.01 5.48Q500.68 6.27 500.68 7.38Z"></path></g></svg>